<?xml version="1.0" encoding="utf-8"?>
<!-- Generator: Adobe Illustrator 18.1.1, SVG Export Plug-In . SVG Version: 6.00 Build 0)  -->
<svg version="1.1" id="Layer_1" xmlns="http://www.w3.org/2000/svg" xmlns:xlink="http://www.w3.org/1999/xlink" x="0px" y="0px"
	 viewBox="50.1 142.1 513 455.3" enable-background="new 50.1 142.1 513 455.3" xml:space="preserve">
<g>
	<path fill="#060E9F" d="M466.2,252.6c0-57.1-70.9-103.6-158.4-103.6s-158.4,46.5-158.4,103.6c0,1.5,0,5.6,0,6.1
		c0,60.6,62,109.6,158.4,109.6c97,0,158.4-49.1,158.4-109.6C466.2,256.6,466.2,255.4,466.2,252.6z"/>
	<ellipse fill="#FFD100" cx="307.8" cy="252.6" rx="152.3" ry="97.5"/>
	<g>
		<path fill="#FFFFFF" d="M257.3,221.8c-0.2,0.2-1.7,1.7-0.6,3c2.4,3,9.9,4.9,17.3,3.2c4.4-1.1,10.2-5.6,15.8-10
			c6.1-4.7,12-9.6,17.9-11.5c6.4-2,10.5-1.2,13.1-0.3c2.9,0.9,6.4,2.9,12,7c10.5,7.9,52.4,44.3,59.5,50.7c5.8-2.6,31.7-13.8,67-21.6
			c-3-18.8-14.4-36-31.7-50c-24.1,10.2-53.6,15.5-82.5,1.4c-0.2,0-15.8-7.4-31.1-7.1c-22.9,0.6-32.8,10.5-43.3,21L257.3,221.8z"/>
		<path fill="#FFFFFF" d="M390.6,268c-0.5-0.5-49.2-43.1-60.3-51.5c-6.4-4.9-10-6.1-13.7-6.5c-2-0.3-4.6,0.2-6.5,0.6
			c-5.2,1.4-11.8,5.9-17.8,10.6c-6.2,4.9-12,9.6-17.5,10.8c-6.8,1.5-15.3-0.3-19.1-2.9c-1.5-1.1-2.6-2.3-3.2-3.5
			c-1.4-3.3,1.2-5.9,1.7-6.4l13.5-14.6c1.5-1.5,3.2-3.2,4.7-4.7c-4.4,0.6-8.4,1.7-12.3,2.7c-4.9,1.4-9.6,2.7-14.3,2.7
			c-2,0-12.6-1.7-14.6-2.3c-12.1-3.3-22.9-6.5-38.9-14c-19.1,14.3-31.9,32-35.7,51.6c2.7,0.8,7.1,2,9.1,2.4
			c43.3,9.6,56.8,19.6,59.2,21.6c2.6-2.9,6.5-4.9,10.8-4.9c4.9,0,9.1,2.4,11.7,6.1c2.4-2,5.9-3.6,10.3-3.6c2,0,4.1,0.3,6.2,1.1
			c4.9,1.7,7.4,4.9,8.7,7.9c1.7-0.8,3.6-1.2,6.1-1.2c2.3,0,4.7,0.6,7.1,1.5c8,3.5,9.3,11.2,8.5,17.2c0.6,0,1.2-0.2,1.7-0.2
			c9.4,0,17.2,7.7,17.2,17.2c0,2.9-0.8,5.6-2.1,8c2.6,1.5,9.1,4.7,14.9,3.9c4.6-0.6,6.4-2.1,7-3c0.5-0.6,0.9-1.4,0.5-1.8l-12.1-13.5
			c0,0-2-2-1.4-2.6c0.8-0.8,2,0.3,2.9,1.1c6.2,5.2,13.8,13.1,13.8,13.1c0.2,0.2,0.6,1.1,3.5,1.5c2.4,0.5,6.7,0.2,9.7-2.3
			c0.8-0.6,1.5-1.4,2.1-2.1l-0.2,0.2c3.2-3.9-0.3-8-0.3-8l-14.3-15.9c0,0-2-1.8-1.4-2.6c0.6-0.6,2,0.3,2.9,1.1
			c4.6,3.8,10.9,10.2,17,16.2c1.2,0.9,6.5,4.3,13.7-0.5c4.3-2.9,5.2-6.4,5-9c-0.3-3.5-3-5.9-3-5.9L352,264c0,0-2.1-1.8-1.4-2.6
			c0.6-0.8,2,0.3,2.7,1.1c6.2,5.2,23.1,20.7,23.1,20.7c0.3,0.2,6.1,4.3,13.2-0.3c2.6-1.7,4.3-4.1,4.4-7
			C394.1,270.9,390.6,268,390.6,268z"/>
		<path fill="#FFFFFF" d="M296.1,292.7c-3,0-6.4,1.8-6.8,1.5c-0.3-0.2,0.2-1.4,0.5-2.1s4.3-12.6-5.5-16.9c-7.4-3.2-12,0.5-13.5,2
			c-0.5,0.5-0.6,0.5-0.6-0.2c-0.2-2.1-1.1-8-7.6-9.9c-9.1-2.7-15,3.6-16.6,5.9c-0.6-5.2-5-9.3-10.5-9.3c-5.9,0-10.6,4.7-10.6,10.6
			c0,5.9,4.7,10.6,10.6,10.6c2.9,0,5.5-1.1,7.3-3c0,0,0.2,0.2,0,0.3c-0.5,2.6-1.2,12.1,8.8,16.1c3.9,1.5,7.4,0.5,10.3-1.5
			c0.9-0.6,0.9-0.3,0.9,0.5c-0.3,2.4,0.2,7.7,7.4,10.8c5.6,2.3,9,0,11.1-2.1c0.9-0.9,1.2-0.8,1.2,0.6c0.3,7.1,6.2,12.8,13.4,12.8
			c7.4,0,13.4-5.9,13.4-13.4C309.5,298.8,303.6,292.9,296.1,292.7z"/>
	</g>
	<path fill="#060E9F" d="M392.6,262.8c-15-13.1-49.8-43.3-59.2-50.4c-5.3-4.1-9.1-6.2-12.3-7.1c-1.5-0.5-3.5-0.9-6.1-0.9
		c-2.4,0-5,0.5-7.6,1.2c-6.1,2-12.1,6.7-17.9,11.4l-0.3,0.3c-5.5,4.4-11.1,8.8-15.3,9.7c-1.8,0.5-3.8,0.6-5.6,0.6
		c-4.7,0-9.1-1.4-10.6-3.5c-0.3-0.3-0.2-0.9,0.5-1.7l0.2-0.2l13.2-14.3c10.3-10.3,20.2-20.2,42.7-20.7c0.3,0,0.8,0,1.1,0
		c14,0,28.1,6.2,29.6,7c13.2,6.4,26.7,9.7,40.4,9.7c14.3,0,28.9-3.5,44.3-10.6c-1.7-1.5-3.5-2.9-5.3-4.3
		c-13.5,5.9-26.4,8.8-38.9,8.8c-12.8,0-25.4-3-37.8-9.1c-0.6-0.3-16.1-7.6-32.2-7.6c-0.5,0-0.9,0-1.2,0c-19,0.5-29.6,7.1-36.8,13.1
		c-7,0.2-12.9,1.8-18.4,3.3c-4.7,1.4-9,2.4-12.9,2.4c-1.7,0-4.7-0.2-4.9-0.2c-4.6-0.2-27.9-5.9-46.5-12.9c-1.8,1.4-3.6,2.7-5.5,4.1
		c19.3,7.9,42.8,14.1,50.3,14.6c2.1,0.2,4.3,0.3,6.5,0.3c4.9,0,9.9-1.4,14.6-2.7c2.7-0.8,5.9-1.7,9.1-2.3c-0.9,0.9-1.7,1.7-2.6,2.6
		l-13.4,14.6c-1.1,1.1-3.3,3.9-1.8,7.4c0.6,1.4,1.8,2.7,3.5,3.9c3.2,2.1,9,3.6,14.3,3.6c2,0,3.9-0.2,5.6-0.6
		c5.6-1.2,11.5-5.9,17.8-10.9c5-3.9,12-9,17.5-10.5c1.5-0.5,3.3-0.6,4.9-0.6c0.5,0,0.9,0,1.2,0c3.6,0.5,7,1.7,13.2,6.4
		c11.1,8.4,59.8,51,60.3,51.3c0,0,3.2,2.7,2.9,7.1c-0.2,2.4-1.5,4.7-3.9,6.2c-2.1,1.4-4.3,2-6.4,2c-3.2,0-5.5-1.5-5.6-1.7
		c-0.2-0.2-16.9-15.5-23.1-20.7c-0.9-0.8-2-1.5-2.9-1.5c-0.5,0-0.9,0.2-1.2,0.6c-0.9,1.2,0.2,2.9,1.4,3.9l19.6,19.6
		c0,0,2.4,2.3,2.7,5.3c0.2,3.2-1.4,5.9-4.7,8c-2.3,1.5-4.7,2.3-7,2.3c-3,0-5.2-1.4-5.6-1.7l-2.7-2.7c-5.2-5-10.5-10.2-14.3-13.5
		c-0.9-0.8-2-1.5-2.9-1.5c-0.5,0-0.9,0.2-1.2,0.5c-0.5,0.5-0.8,1.4,0.3,2.9c0.5,0.6,0.9,1.1,0.9,1.1l14.3,15.9
		c0.2,0.2,2.9,3.5,0.3,6.8l-0.5,0.6c-0.5,0.5-0.9,0.9-1.4,1.2c-2.4,2-5.6,2.3-7,2.3c-0.8,0-1.4,0-2-0.2c-1.4-0.3-2.3-0.6-2.7-1.2
		l-0.2-0.2c-0.8-0.8-7.9-8.2-14-13.1c-0.8-0.6-1.8-1.5-2.7-1.5c-0.5,0-0.9,0.2-1.2,0.6c-1.2,1.2,0.6,3.2,1.4,3.9l12.1,13.4
		c0,0.2-0.2,0.5-0.5,0.8c-0.5,0.6-2,2.1-6.4,2.6c-0.5,0-1.1,0.2-1.7,0.2c-4.6,0-9.4-2.3-11.8-3.5c1.1-2.4,1.7-5,1.7-7.7
		c0-10-8-18.1-18.1-18.2c-0.2,0-0.5,0-0.6,0c0.3-4.6-0.3-13.2-9.3-17c-2.6-1.1-5.2-1.7-7.6-1.7c-2,0-3.8,0.3-5.6,1.1
		c-1.8-3.6-4.9-6.2-8.8-7.6c-2.1-0.8-4.4-1.2-6.5-1.2c-3.6,0-7.1,1.1-10.2,3.2c-2.9-3.6-7.3-5.8-12-5.8c-4.1,0-7.9,1.7-10.8,4.4
		c-3.8-2.9-18.8-12.5-58.9-21.6c-2-0.5-6.4-1.7-9.1-2.6c-0.5,2.1-0.8,4.4-1.1,6.5c0,0,7.4,1.8,8.8,2.1c41,9.1,54.5,18.5,56.9,20.3
		c-0.8,1.8-1.2,3.9-1.2,5.9c0,8.5,6.8,15.3,15.3,15.3c0.9,0,1.8-0.2,2.9-0.3c1.2,6.2,5.3,10.9,11.5,13.4c1.8,0.8,3.6,1.1,5.5,1.1
		c1.2,0,2.3-0.2,3.5-0.5c1.2,2.9,3.8,6.5,9.6,9c2,0.8,4.1,1.2,6.1,1.2c1.7,0,3.2-0.3,4.7-0.8c2.7,6.8,9.4,11.2,16.7,11.2
		c4.9,0,9.6-2,13.1-5.5c2.9,1.7,9.1,4.6,15.3,4.6c0.8,0,1.5,0,2.3-0.2c6.2-0.8,9.1-3.2,10.5-5.2c0.3-0.3,0.5-0.6,0.6-1.1
		c1.5,0.5,3,0.8,4.9,0.8c3.3,0,6.7-1.2,9.9-3.5c3.2-2.3,5.5-5.6,5.9-8.5v-0.2c1.1,0.2,2.3,0.3,3.3,0.3c3.5,0,7-1.1,10.2-3.2
		c6.4-4.1,7.4-9.6,7.3-13.1c1.1,0.3,2.3,0.3,3.3,0.3c3.3,0,6.5-0.9,9.6-2.9c3.9-2.4,6.2-6.4,6.7-10.8c0.3-3-0.5-6.1-2.1-8.7
		c10.6-4.6,34.8-13.4,63.3-19.7c-0.2-2.3-0.5-4.4-0.9-6.5C424.8,248.8,398.9,259.9,392.6,262.8z M296.1,318.6
		c-6.7,0-12.1-5.2-12.5-11.8c0-0.6,0-2.1-1.4-2.1c-0.5,0-0.9,0.3-1.5,0.8c-1.5,1.4-3.3,2.7-6.1,2.7c-1.2,0-2.6-0.3-3.9-0.9
		c-7.1-2.9-7.1-7.7-6.8-9.7c0.2-0.5,0.2-1.1-0.3-1.5l-0.5-0.5h-0.5c-0.3,0-0.8,0.2-1.2,0.5c-2,1.4-3.9,2.1-6.1,2.1
		c-1.1,0-2.3-0.2-3.3-0.6c-9.3-3.6-8.5-12.5-8-15c0-0.6,0-0.9-0.5-1.2l-0.6-0.6l-0.6,0.6c-1.8,1.8-4.3,2.7-6.7,2.7
		c-5.3,0-9.7-4.4-9.7-9.7c0-5.3,4.4-9.7,9.7-9.7c4.9,0,9,3.6,9.6,8.5l0.3,2.6l1.4-2.1c0.2-0.3,4.1-6.2,11.2-6.2
		c1.4,0,2.7,0.2,4.3,0.6c5.8,1.8,6.7,7,6.8,9.1c0.2,1.2,1.1,1.4,1.2,1.4c0.5,0,0.9-0.3,1.1-0.6c1.1-1.1,3.5-3,7.1-3
		c1.7,0,3.5,0.5,5.3,1.2c9.1,3.9,5,15.5,4.9,15.6c-0.8,2-0.8,2.7-0.2,3.2l0.3,0.2h0.3c0.5,0,0.9-0.2,1.8-0.5c1.2-0.5,3-1.1,4.9-1.1
		l0,0c6.8,0,12.5,5.6,12.5,12.5C308.6,312.9,303,318.6,296.1,318.6z"/>
</g>
<g>
	<path fill="#060E9F" d="M548.7,430.2c-5.8-7.1-14.4-10.8-26.1-10.8c-11.7,0-20.3,3.6-26,10.8c-5.8,7.1-8.7,15.6-8.7,25.4
		c0,9.9,2.9,18.4,8.7,25.5c5.8,7,14.4,10.6,26,10.6c11.7,0,20.3-3.5,26.1-10.6c5.8-7.1,8.5-15.5,8.5-25.5
		C557.2,445.8,554.3,437.3,548.7,430.2z M534.4,471.3c-2.7,3.6-6.7,5.5-12,5.5c-5.2,0-9.1-1.8-12-5.5c-2.7-3.6-4.3-9-4.3-15.6
		c0-6.8,1.4-12,4.3-15.6s6.8-5.5,12-5.5s9.1,1.8,12,5.5c2.7,3.6,4.1,9,4.1,15.6C538.7,462.4,537.1,467.7,534.4,471.3z"/>
	<path fill="#060E9F" d="M402.4,424.2c-5.8-2.9-12.5-4.4-19.9-4.4c-11.5,0-19.6,3-24.3,9c-3,3.8-4.6,8.7-5,14.6h17.2
		c0.5-2.6,1.2-4.7,2.6-6.2c1.8-2.1,4.7-3.2,9-3.2c3.8,0,6.7,0.5,8.7,1.7c2,1.1,2.9,3,2.9,5.8c0,2.3-1.2,3.9-3.8,5
		c-1.4,0.6-3.8,1.1-7.1,1.5l-6.1,0.8c-6.8,0.9-12.1,2.3-15.6,4.4c-6.5,3.8-9.7,9.7-9.7,18.1c0,6.4,2,11.4,6.1,14.9
		c3.9,3.5,9.1,5,15.3,5.3c38.7,1.7,38.4-20.5,38.7-25.1v-25.5C411.2,432.8,408.2,427.1,402.4,424.2z M393.5,463
		c-0.2,5.9-1.8,10-5.2,12.3c-3.3,2.3-6.8,3.3-10.8,3.3c-2.4,0-4.6-0.8-6.2-2c-1.7-1.4-2.6-3.5-2.6-6.5c0-3.3,1.4-5.9,4.3-7.6
		c1.7-0.9,4.4-1.8,8.2-2.4l4.1-0.8c2-0.5,3.6-0.8,4.7-1.2c1.2-0.5,2.3-1.1,3.5-1.7L393.5,463L393.5,463z"/>
	<path fill="#060E9F" d="M314,435c4.4,0,7.7,1.4,9.7,4.1c1.4,2,2.3,4.3,2.7,6.8h19.1c-1.1-9.7-4.4-16.4-10.2-20.2
		c-5.8-3.8-13.1-5.8-22-5.8c-10.5,0-18.8,3.2-24.8,9.7c-5.9,6.5-9,15.5-9,27.2c0,10.3,2.7,18.7,8.2,25.2c5.5,6.5,13.8,9.7,25.4,9.7
		c11.5,0,20.2-3.9,26-11.7c3.6-4.9,5.8-9.9,6.2-15.3h-19.1c-0.5,3.5-1.5,6.5-3.3,8.7c-1.8,2.3-5,3.3-9.3,3.3
		c-6.2,0-10.3-2.9-12.6-8.5c-1.2-3-1.8-7-1.8-12c0-5.2,0.6-9.4,1.8-12.5C303.4,437.9,307.7,435,314,435z"/>
	<path fill="#060E9F" d="M274.6,420c-39.3,0-36.9,34.8-36.9,34.8v35.4h17.8V457c0-5.5,0.8-9.4,2-12c2.4-4.7,7.3-7,14.4-7
		c0.6,0,1.2,0,2.1,0s1.8,0.2,3,0.3v-18.2c-0.8,0-1.4-0.2-1.5-0.2C275.2,420,274.9,420,274.6,420z"/>
	<path fill="#060E9F" d="M209.1,471.8c-0.8,1.1-1.5,2-2.4,2.7c-2.6,2.1-5.9,2.7-10,2.7c-3.8,0-6.8-0.6-9.6-2.3
		c-4.4-2.7-7-7.3-7.3-14.1h49.5c0-5.8-0.2-10.3-0.6-13.5c-0.8-5.3-2.6-10-5.5-14c-3-4.6-7-7.9-11.7-10c-4.7-2.1-10-3.2-15.9-3.2
		c-9.9,0-18.1,3.2-24.3,9.4c-6.2,6.2-9.4,15.3-9.4,27c0,12.6,3.5,21.6,10.3,27.2c6.8,5.6,14.9,8.4,23.8,8.4
		c10.9,0,19.4-3.3,25.5-9.9c3.3-3.5,5.3-6.8,6.2-10.3h-18.7V471.8z M185.1,438.5c2.6-2.6,6.1-3.8,10.6-3.8c4.3,0,7.7,1.2,10.5,3.6
		c2.9,2.4,4.4,6.1,4.7,10.6h-30.5C181,444.6,182.5,441.1,185.1,438.5z"/>
	<g>
		<path fill="#060E9F" d="M154.9,490.2h-16.2v-41c0-3.8-1.2-12.6-12-12.6c-7.1,0-12.3,5.2-12.3,12.6v41H98v-41
			c0-3.8-1.1-12.6-11.8-12.6c-7.3,0-12.3,5.2-12.3,12.6v41H57.6v-40.7c0-17,11.2-29.8,28.7-29.8c8.7,0,15.6,3.6,20.2,9.4
			c4.9-5.8,12-9.4,20.2-9.4c17.8,0,28.2,12.3,28.2,29.8L154.9,490.2L154.9,490.2z"/>
	</g>
	<path fill="#060E9F" d="M482.6,398.6c0,0-17.9-2-17.9,12.5v19.1c-2-3.2-4.6-5.6-7.7-7.4s-6.8-2.7-10.9-2.7c-9,0-15.9,3.3-21.4,9.9
		c-5.3,6.7-8,16.2-8,27.8c0,10,2.7,18.2,8,24.6c5.5,6.4,15.9,9.3,25.4,9.3c32.8,0,32.5-28.1,32.5-28.1L482.6,398.6z M461.2,471.5
		c-2.6,3.8-6.4,5.6-11.4,5.6c-5,0-8.8-1.8-11.2-5.6s-3.6-9.3-3.6-15.5c0-5.8,1.2-10.6,3.6-14.6s6.2-5.9,11.4-5.9
		c3.3,0,6.4,1.1,9,3.2c4.3,3.5,6.2,10,6.2,18.2C465.2,463,463.8,467.7,461.2,471.5z"/>
</g>
<g>
	<path fill="#060E9F" d="M407.7,575.3c-0.8,1.1-1.5,2-2.4,2.7c-2.4,2-6.1,2.9-10,2.9c-3.8,0-6.7-0.6-9.4-2.3
		c-4.4-2.7-6.8-7.4-7-14.1h48.9c0-5.8-0.2-10.2-0.6-13.4c-0.8-5.3-2.6-9.9-5.3-13.8c-3-4.6-7-7.9-11.5-9.9
		c-4.7-2.1-9.9-3.2-15.8-3.2c-9.9,0-17.9,3-24,9.3c-6.2,6.2-9.3,15.2-9.3,26.7c0,12.5,3.3,21.4,10.3,26.9c6.8,5.5,14.7,8.2,23.7,8.2
		c10.8,0,19.3-3.3,25.2-9.9c3.2-3.5,5.3-6.8,6.1-10.2H407.7z M383.9,542.5c2.4-2.6,5.9-3.8,10.5-3.8c4.1,0,7.6,1.2,10.5,3.6
		c2.7,2.4,4.4,5.9,4.7,10.6h-30.2C379.8,548.5,381.5,545,383.9,542.5z"/>
	<path fill="#060E9F" d="M285,524.3c-4.1,0-7.7,0.9-10.9,2.7c-3.2,1.8-5.8,4.3-7.7,7.4v-32c0,0-17.9-1.8-17.9,12.8
		c0,12.3,0,51.9,0,51.9s-0.3,28.2,32.5,28.2c9.4,0,20-2.9,25.4-9.3c5.5-6.4,8-14.6,8-24.6c0-11.5-2.7-20.7-8-27.3
		C301.1,527.7,294,524.3,285,524.3z M292.5,575.2c-2.4,3.8-6.2,5.6-11.2,5.6s-8.8-1.8-11.4-5.6c-2.6-3.8-3.9-8.5-3.9-14.4
		c0-8.4,2.1-14.3,6.2-17.8c2.6-2.1,5.6-3.2,9-3.2c5.2,0,9,2,11.4,5.9c2.4,3.9,3.6,8.8,3.6,14.6C296.1,566.5,294.9,571.6,292.5,575.2
		z"/>
	<path fill="#060E9F" d="M357.8,524.2c-0.3,0-0.5,0-0.9,0c-39.3,0-37.1,34.8-37.1,34.8v34.8h17.8v-32.7c0-5.5,0.6-9.4,2.1-12
		c2.4-4.7,7.3-7,14.4-7c0.6,0,1.2,0,2.1,0c0.9,0,1.8,0.2,3,0.3v-18.1C358.4,524.3,357.9,524.3,357.8,524.2z"/>
	<path fill="#060E9F" d="M186.9,515.2c0,13.5,0,78.5,0,78.5h16.7v-91.3C203.6,502.3,186.9,501.7,186.9,515.2z"/>
	<g>
		<rect x="217.3" y="502.3" fill="#060E9F" width="17.9" height="17.8"/>
		<rect x="217.3" y="526" fill="#060E9F" width="17.9" height="67.7"/>
	</g>
</g>
</svg>
